<svg xmlns="http://www.w3.org/2000/svg" width="24" height="24" fill="" viewBox="0 0 24 24">
  <path d="M12 .297C5.373.297 0 5.67 0 12c0 5.302 3.438 9.8 8.205 11.387.6.112.82-.258.82-.577v-2.234c-3.338.726-4.033-1.416-4.033-1.416-.546-1.387-1.333-1.755-1.333-1.755-1.09-.744.084-.729.084-.729 1.205.084 1.84 1.236 1.84 1.236 1.07 1.834 2.809 1.304 3.495.997.108-.775.418-1.305.762-1.605C7.042 16.695 4.24 15.666 4.24 11.07c0-1.31.467-2.38 1.235-3.22-.135-.303-.54-1.523.105-3.176 0 0 1.005-.322 3.3 1.23a11.48 11.48 0 0 1 3-.405c1.02.004 2.045.138 3 .405 2.28-1.552 3.285-1.23 3.285-1.23.645 1.653.24 2.873.12 3.176.765.84 1.23 1.91 1.23 3.22 0 4.61-2.805 5.625-5.475 5.92.43.372.81 1.102.81 2.222v3.293c0 .32.21.697.825.577C20.565 21.8 24 17.302 24 12c0-6.33-5.373-11.703-12-11.703z"></path>
</svg>
